<?xml version="1.0" standalone="no"?>
<!DOCTYPE svg PUBLIC "-//W3C//DTD SVG 20010904//EN"
 "http://www.w3.org/TR/2001/REC-SVG-20010904/DTD/svg10.dtd">
<svg version="1.0" xmlns="http://www.w3.org/2000/svg"
 width="236.000000pt" height="236.000000pt" viewBox="0 0 236.000000 236.000000"
 preserveAspectRatio="xMidYMid meet">
<metadata>
Created by potrace 1.14, written by Peter Selinger 2001-2017
</metadata>
<g transform="translate(0.000000,236.000000) scale(0.100000,-0.100000)"
fill="#000000" stroke="none">
<path d="M1 2118 c-1 -193 1 -240 11 -230 18 18 28 15 28 -8 0 -21 33 -60 50
-60 16 0 12 -17 -5 -24 -9 -3 -18 1 -21 9 -4 8 -10 13 -15 10 -4 -3 -6 -12 -2
-20 6 -18 -18 -20 -34 -4 -8 8 -11 -6 -11 -50 0 -34 4 -61 9 -61 12 0 11 -37
-1 -45 -7 -4 -10 -76 -9 -196 1 -178 2 -189 20 -189 10 0 19 -5 19 -11 0 -6
-9 -8 -20 -4 -27 9 -27 -25 0 -50 26 -23 26 -39 0 -32 -18 5 -20 0 -20 -49 0
-58 10 -66 50 -42 10 7 22 9 25 6 9 -8 -17 -48 -30 -47 -43 5 -45 2 -45 -84 0
-47 5 -88 11 -94 8 -8 8 -17 -1 -32 -6 -12 -10 -32 -7 -44 3 -21 4 -21 12 -2
5 11 23 39 41 62 18 23 35 57 39 75 4 18 18 47 31 65 13 17 24 36 24 42 0 6 5
11 11 11 5 0 7 4 4 10 -8 13 40 64 53 56 7 -4 7 -17 2 -37 -8 -25 -6 -30 6
-25 12 4 12 2 4 -14 -5 -10 -15 -22 -20 -25 -20 -12 -11 -45 13 -46 17 -1 15
-3 -11 -12 -19 -6 -31 -15 -28 -22 2 -7 -4 -19 -15 -28 -18 -16 -19 -15 -20 6
0 19 -2 18 -16 -10 -20 -39 -37 -44 -23 -7 14 35 12 42 -4 18 -9 -13 -13 -41
-12 -82 2 -35 -2 -66 -7 -69 -5 -3 -3 -10 4 -15 10 -7 8 -8 -7 -3 -13 3 -30
-2 -45 -14 -13 -11 -19 -20 -12 -21 8 0 6 -10 -5 -32 -15 -28 -17 -76 -20
-340 -2 -303 -2 -308 18 -308 11 0 20 5 20 10 0 14 27 12 34 -2 4 -7 4 -3 2 9
-4 24 17 49 34 38 5 -3 10 -15 10 -25 0 -29 19 -34 29 -8 l10 23 1 -25 1 -25
11 25 c11 25 11 25 15 3 6 -30 23 -30 23 0 0 12 2 31 4 42 2 11 1 15 -1 9 -5
-13 -53 -25 -53 -14 0 4 7 13 15 20 21 17 19 30 -5 30 -11 0 -20 -7 -20 -15 0
-8 -4 -15 -10 -15 -19 0 -10 38 10 43 15 4 20 14 20 39 l1 33 14 -30 c11 -24
14 -26 14 -9 1 20 -16 44 -31 44 -4 0 -8 -9 -8 -20 0 -11 -4 -20 -9 -20 -4 0
-7 11 -6 25 2 14 -1 25 -6 25 -5 0 -9 5 -9 11 0 6 7 8 16 5 11 -4 15 -2 11 8
-3 7 -2 30 3 50 5 22 4 38 -2 42 -5 3 -7 12 -4 19 2 7 0 17 -6 23 -6 6 -6 12
1 16 6 4 11 25 11 46 0 21 5 40 11 42 7 2 9 13 4 27 -5 18 -12 21 -31 17 -15
-4 -34 0 -49 10 -32 21 -32 29 3 32 38 3 71 22 65 38 -3 8 2 17 11 20 12 5 14
10 6 19 -9 10 -6 19 10 35 12 12 20 23 18 24 -22 14 -61 23 -79 19 -23 -6 -23
-6 -7 10 9 9 21 17 27 17 6 0 11 5 11 11 0 6 8 8 19 4 12 -3 23 0 28 8 4 7 16
16 25 20 22 8 24 27 3 27 -8 0 -15 5 -15 10 0 14 16 13 40 -2 17 -11 24 -9 50
20 16 18 30 38 30 44 0 5 7 7 16 4 11 -4 18 1 21 14 3 11 10 20 17 20 6 0 4 5
-4 10 -13 8 -12 11 4 23 10 7 20 24 21 38 1 13 3 28 4 32 0 5 10 5 21 2 14 -4
20 -2 20 8 0 18 -52 30 -62 14 -4 -6 -10 1 -14 17 -4 18 -11 25 -21 22 -8 -4
-17 3 -23 17 -7 17 -9 18 -9 5 -1 -13 -9 -18 -30 -18 -16 0 -31 -5 -33 -11 -2
-5 -10 -8 -19 -4 -10 4 -15 18 -14 48 2 62 2 61 35 95 17 18 30 36 30 41 0 13
27 21 48 14 15 -6 15 -4 -2 15 -19 22 -19 22 7 22 14 0 30 -7 35 -16 5 -9 12
-15 15 -15 28 4 57 -1 57 -9 0 -5 -9 -10 -20 -10 -11 0 -20 -4 -20 -10 0 -5
12 -10 26 -10 16 0 28 -7 30 -18 6 -20 51 -44 60 -31 3 5 -2 9 -10 9 -19 0
-21 16 -3 23 6 3 2 6 -9 6 -12 1 -24 8 -28 16 -4 12 0 14 22 9 15 -4 35 -11
45 -16 33 -17 40 3 11 30 -21 18 -24 23 -9 18 41 -16 79 -26 83 -21 11 11 -65
56 -146 86 -31 11 -64 49 -44 49 6 0 12 9 15 19 3 13 0 18 -8 15 -7 -3 -16 0
-21 7 -4 8 -3 10 4 5 7 -4 12 -1 12 9 0 10 5 13 12 9 7 -5 8 -3 3 5 -4 8 1 18
14 27 11 8 26 33 32 55 9 27 17 38 26 35 8 -4 11 -1 8 5 -9 14 13 67 42 102
13 16 23 35 23 43 0 8 5 14 10 14 6 0 10 4 10 10 0 5 11 26 25 46 14 20 25 46
26 58 0 20 1 20 9 -1 8 -19 17 -23 54 -23 35 0 45 -4 49 -20 4 -17 2 -18 -15
-9 -14 7 -23 7 -34 -1 -7 -7 -23 -10 -34 -7 -26 7 -52 -19 -48 -46 5 -36 28
-32 28 4 0 26 3 30 12 21 14 -14 62 -16 53 -2 -3 6 -1 10 4 10 17 0 13 -27 -4
-34 -26 -10 -16 -26 15 -26 16 0 29 -3 29 -7 -1 -5 -1 -16 0 -25 1 -22 21 -24
21 -2 0 9 7 14 17 12 23 -4 28 -25 6 -31 -12 -3 -10 -5 8 -6 18 -1 30 7 39 24
7 14 17 25 22 25 4 0 8 6 8 14 0 11 12 15 40 14 22 0 40 -3 40 -7 0 -18 -25
-29 -53 -24 -29 6 -30 5 -24 -25 6 -29 4 -31 -26 -34 -19 -2 -31 -8 -30 -15 4
-16 -55 -17 -77 -3 -13 9 -13 10 0 10 13 0 13 1 0 10 -8 5 -21 10 -27 10 -21
0 -14 -20 10 -31 18 -8 23 -17 19 -35 -2 -13 -9 -24 -14 -24 -6 0 -8 -6 -5
-13 5 -13 -30 -43 -45 -39 -15 4 -8 -21 10 -34 16 -13 16 -13 0 -14 -30 0 -20
-20 12 -27 17 -3 35 -14 40 -23 12 -23 41 -34 51 -18 12 19 41 -10 33 -35 -4
-12 -2 -17 4 -13 5 3 17 -10 26 -28 9 -19 20 -36 24 -38 14 -6 53 -77 48 -87
-12 -18 25 -41 66 -41 32 0 52 9 108 53 38 28 71 61 74 72 10 37 6 68 -11 88
-15 17 -16 20 -2 15 12 -5 15 -1 11 18 -2 13 0 24 4 24 24 -1 31 -20 30 -90
-1 -41 4 -83 10 -92 10 -16 12 -16 22 7 14 29 23 30 90 9 54 -18 81 -55 67
-91 -3 -10 -7 -20 -7 -23 0 -3 -9 -11 -20 -18 -24 -17 -13 -35 18 -28 14 4 24
2 24 -4 0 -6 -14 -13 -30 -17 -17 -3 -33 -10 -36 -14 -3 -5 -12 -9 -21 -9 -8
0 -52 -18 -97 -41 -64 -32 -88 -39 -113 -34 -26 5 -33 3 -33 -10 0 -8 -10 -19
-22 -24 -50 -20 -64 -24 -75 -22 -7 1 -13 -3 -13 -9 0 -5 -9 -10 -19 -10 -11
0 -22 -4 -25 -9 -15 -23 -136 -15 -136 9 0 18 -52 10 -83 -12 -18 -13 -40 -21
-49 -20 -25 4 -24 -42 2 -91 24 -45 26 -73 4 -81 -14 -5 -12 -11 11 -41 19
-26 28 -51 31 -93 3 -31 11 -70 19 -87 7 -16 16 -38 19 -48 5 -14 10 -16 26
-7 18 10 19 9 9 -17 -7 -20 -7 -29 1 -31 6 -2 17 -20 25 -39 11 -25 19 -33 30
-29 15 5 23 -5 29 -36 6 -30 28 -104 37 -121 5 -9 6 -28 3 -42 -5 -20 -3 -24
9 -19 10 3 18 -2 22 -15 3 -12 11 -21 17 -21 6 0 8 -15 6 -35 l-4 -35 618 0
c527 0 618 2 618 14 0 8 -19 21 -41 28 l-41 14 28 12 c24 12 26 11 14 -2 -10
-13 -10 -16 4 -16 9 0 16 5 16 10 0 6 9 10 19 10 10 0 21 7 25 15 3 9 18 15
35 15 65 0 61 -30 61 430 l0 418 -25 6 c-14 4 -28 13 -31 20 -3 8 -23 33 -45
55 -21 23 -38 46 -36 51 1 5 -5 15 -14 22 -10 7 -20 23 -24 36 -5 18 -2 22 14
22 12 0 21 -5 21 -11 0 -6 6 -9 14 -6 7 3 27 -7 43 -21 16 -15 41 -33 56 -39
l27 -13 0 645 0 645 -52 0 c-28 0 -48 -3 -45 -6 3 -4 -12 -20 -33 -35 -22 -16
-40 -34 -40 -40 0 -5 -16 -31 -35 -56 -19 -25 -35 -51 -35 -58 0 -18 -27 -38
-34 -26 -10 15 -8 130 2 179 l9 42 -304 0 c-183 0 -302 -4 -298 -9 3 -6 -10
-5 -30 0 -36 10 -75 7 -45 -4 8 -3 24 -8 35 -13 11 -4 22 -8 25 -8 3 -1 32
-12 63 -25 59 -25 76 -51 32 -51 -14 0 -25 -4 -25 -10 0 -5 6 -10 14 -10 11 0
7 -18 -18 -72 -18 -40 -37 -84 -41 -98 -15 -48 -30 -53 -74 -25 -23 14 -43 25
-47 25 -15 0 -233 112 -244 125 -7 8 -21 15 -32 15 -11 0 -22 9 -25 20 -4 14
-13 20 -32 19 -14 -1 -39 5 -55 14 -16 9 -47 21 -70 28 -27 8 -48 23 -61 43
l-20 31 -422 3 -421 3 -1 -243z m1549 207 c0 -12 -29 -3 -34 10 -4 13 -2 14
14 5 11 -6 20 -13 20 -15z m495 -25 c-1 -11 -9 -28 -19 -38 -16 -16 -17 -15
-10 13 8 36 13 45 23 45 4 0 7 -9 6 -20z m-1970 0 c3 -5 1 -10 -4 -10 -6 0
-11 5 -11 10 0 6 2 10 4 10 3 0 8 -4 11 -10z m1987 -57 c3 -10 -4 -27 -15 -38
-11 -11 -17 -14 -13 -7 4 6 3 12 -1 12 -5 0 -15 -6 -22 -12 -7 -7 -3 4 9 25
24 41 35 46 42 20z m128 -52 c0 -12 -30 -22 -43 -14 -7 4 -3 9 9 14 26 10 34
10 34 0z m-490 -85 c5 -13 18 -27 29 -31 23 -7 36 -22 45 -52 6 -17 3 -23 -8
-23 -11 0 -15 -10 -14 -37 l1 -36 33 39 c36 42 57 45 87 13 22 -24 25 -159 3
-159 -23 0 -181 77 -196 95 -16 19 -38 111 -39 161 -1 52 42 75 59 30z m390
-11 c32 -33 26 -48 -9 -26 -16 11 -51 -7 -51 -26 0 -7 -9 -21 -21 -32 -14 -13
-19 -26 -15 -39 6 -17 3 -19 -14 -15 -14 4 -20 1 -20 -11 0 -9 -4 -16 -10 -16
-5 0 -8 22 -6 52 3 44 9 56 37 79 19 15 38 25 43 22 5 -4 6 -1 2 6 -7 11 9 41
23 41 4 0 22 -16 41 -35z m139 -67 c60 -19 98 -37 111 -53 20 -24 -3 -18 -92
25 -81 39 -89 51 -19 28z m-1489 -96 c0 -5 -9 -17 -20 -27 -19 -17 -19 -17 -7
9 12 25 27 35 27 18z m310 -37 c16 -42 14 -51 -10 -47 -11 2 -20 -2 -20 -7 0
-6 -9 -11 -20 -11 -11 0 -20 5 -20 10 0 6 9 10 20 10 23 0 27 29 8 48 -19 19
-30 14 -18 -7 7 -13 7 -22 0 -26 -6 -3 -15 6 -20 21 -14 35 1 52 38 46 22 -3
32 -12 42 -37z m399 -14 c8 -5 11 -16 8 -25 -9 -24 -24 -19 -29 9 -6 27 -1 30
21 16z m-539 -51 c0 -5 -5 -10 -11 -10 -5 0 -7 5 -4 10 3 6 8 10 11 10 2 0 4
-4 4 -10z m50 0 c0 -5 -4 -10 -10 -10 -5 0 -10 5 -10 10 0 6 5 10 10 10 6 0
10 -4 10 -10z m420 -23 c0 -10 -55 -67 -64 -67 -4 0 0 13 8 28 8 16 12 38 9
50 -5 20 -3 20 21 9 14 -7 26 -16 26 -20z m-547 -16 c-5 -33 -2 -39 16 -44 24
-6 29 -27 6 -27 -8 0 -15 5 -15 10 0 6 -6 10 -12 10 -14 0 -17 57 -5 78 13 20
15 14 10 -27z m95 -3 c-7 -13 -14 -25 -15 -27 -1 -1 -7 0 -13 4 -6 4 -2 13 12
25 30 25 31 25 16 -2z m-778 -20 c0 -5 -7 -8 -15 -8 -17 0 -18 2 -9 25 5 13 8
14 15 3 5 -7 9 -16 9 -20z m49 -75 c0 -25 -1 -26 -9 -8 -12 27 -12 35 0 35 6
0 10 -12 9 -27z m-12 -49 c-3 -3 -12 -4 -19 -1 -8 3 -5 6 6 6 11 1 17 -2 13
-5z m51 -33 c3 -8 -1 -12 -9 -9 -7 2 -15 10 -17 17 -3 8 1 12 9 9 7 -2 15 -10
17 -17z m1687 -91 c8 -16 15 -38 15 -49 0 -13 8 -21 22 -23 26 -3 37 -36 16
-49 -25 -16 -38 -9 -38 21 0 18 -5 30 -13 30 -20 0 -67 57 -67 80 0 33 46 26
65 -10z m-1495 14 c0 -3 -7 -12 -15 -21 -8 -8 -13 -19 -10 -24 4 -5 1 -9 -4
-9 -6 0 -11 13 -11 28 0 21 5 28 20 29 11 1 20 -1 20 -3z m700 -16 c0 -16 -49
-63 -56 -55 -12 11 21 67 38 67 10 0 18 -6 18 -12z m-904 -33 c-4 -11 1 -15
19 -15 14 0 24 -3 24 -7 -3 -19 2 -27 10 -15 7 11 9 11 14 -2 8 -21 -16 -21
-37 -1 -8 8 -21 15 -29 15 -7 0 -16 3 -20 6 -8 8 3 34 15 34 6 0 8 -7 4 -15z
m150 -49 c-4 -25 -11 -46 -15 -46 -15 0 -46 35 -49 55 -2 19 -2 19 17 -2 l19
-22 7 22 c4 12 6 31 5 42 -1 15 1 17 10 8 9 -8 10 -26 6 -57z m54 -21 c0 -15
-18 -30 -27 -22 -2 3 -2 15 2 26 7 23 25 19 25 -4z m-140 -73 c0 -13 -8 -18
-27 -17 -14 0 -28 5 -30 12 -4 10 5 14 50 22 4 0 7 -7 7 -17z m759 -84 c1 -13
-6 -18 -24 -18 -29 0 -31 10 -8 53 l17 32 7 -25 c4 -14 7 -33 8 -42z m-941 24
c2 -8 -5 -11 -20 -8 -12 3 -29 5 -35 5 -7 1 -13 6 -13 12 0 14 63 6 68 -9z
m62 -39 c0 -14 -19 -38 -25 -32 -8 8 5 39 16 39 5 0 9 -3 9 -7z m40 -51 c0 -3
-8 -11 -17 -18 -14 -9 -21 -10 -32 -1 -10 9 -16 7 -25 -5 -11 -16 -15 -16 -34
-2 -12 8 -22 18 -22 22 0 4 29 7 65 8 36 0 65 -2 65 -4z m99 -158 c2 -2 -10
-4 -27 -4 -17 0 -34 4 -37 10 -5 9 53 3 64 -6z m91 -54 c0 -5 -5 -10 -11 -10
-5 0 -7 5 -4 10 3 6 8 10 11 10 2 0 4 -4 4 -10z m-88 -85 c0 -5 -5 -11 -11
-13 -6 -2 -11 4 -11 13 0 9 5 15 11 13 6 -2 11 -8 11 -13z m-262 -29 c0 -3 -4
-8 -10 -11 -5 -3 -10 -1 -10 4 0 6 5 11 10 11 6 0 10 -2 10 -4z m854 -41 c39
-26 94 -32 151 -17 44 12 77 0 100 -36 11 -17 25 -31 31 -32 14 0 26 -43 18
-64 -7 -19 -38 -29 -64 -21 -14 4 -20 2 -20 -9 0 -8 -9 -20 -20 -26 -15 -8
-19 -17 -14 -35 7 -29 -10 -33 -40 -10 -26 20 -42 19 -26 -1 11 -12 11 -18 -2
-30 -13 -14 -19 -13 -51 6 -37 22 -57 20 -57 -6 0 -24 -22 -16 -57 22 -26 29
-33 46 -36 85 -2 37 -9 57 -28 77 -25 26 -46 102 -32 115 3 4 30 7 58 7 39 0
61 -6 89 -25z m422 -57 c49 -54 49 -59 0 -39 -24 11 -46 17 -49 15 -2 -2 -10
2 -17 11 -10 12 -10 18 0 30 19 22 34 18 66 -17z m-1219 -84 c-3 -3 -12 -4
-19 -1 -8 3 -5 6 6 6 11 1 17 -2 13 -5z m1430 -30 c-3 -3 -12 -4 -19 -1 -8 3
-5 6 6 6 11 1 17 -2 13 -5z m-667 -174 c0 -5 -4 -10 -10 -10 -5 0 -10 5 -10
10 0 6 5 10 10 10 6 0 10 -4 10 -10z m-63 -32 c-3 -8 -6 -5 -6 6 -1 11 2 17 5
13 3 -3 4 -12 1 -19z m-737 2 c0 -5 -4 -10 -10 -10 -5 0 -10 5 -10 10 0 6 5
10 10 10 6 0 10 -4 10 -10z m30 6 c0 -3 -4 -8 -10 -11 -5 -3 -10 -1 -10 4 0 6
5 11 10 11 6 0 10 -2 10 -4z m-70 -16 c0 -5 -5 -10 -11 -10 -5 0 -7 5 -4 10 3
6 8 10 11 10 2 0 4 -4 4 -10z m1 -57 c-12 -20 -14 -14 -5 12 4 9 9 14 11 11 3
-2 0 -13 -6 -23z m56 -289 c-1 -2 -8 0 -14 4 -7 5 -10 18 -6 32 7 25 7 25 14
-5 5 -16 7 -30 6 -31z m-47 -54 c0 -5 -4 -10 -10 -10 -5 0 -10 5 -10 10 0 6 5
10 10 10 6 0 10 -4 10 -10z"/>
<path d="M1257 2353 c-13 -12 -7 -33 8 -33 8 0 15 9 15 20 0 20 -11 26 -23 13z"/>
<path d="M1206 2342 c-3 -5 1 -15 9 -22 16 -14 20 -3 6 19 -5 8 -11 9 -15 3z"/>
<path d="M996 2331 c-4 -7 -5 -15 -2 -18 9 -9 19 4 14 18 -4 11 -6 11 -12 0z"/>
<path d="M1376 2331 c-7 -10 22 -37 30 -28 9 8 -3 37 -15 37 -5 0 -12 -4 -15
-9z"/>
<path d="M1020 2290 c0 -5 4 -10 10 -10 5 0 7 -8 3 -17 -4 -14 -3 -15 6 -7 6
6 9 18 5 27 -7 18 -24 23 -24 7z"/>
<path d="M1197 2288 c-2 -7 0 -23 6 -34 6 -14 6 -28 -1 -39 -5 -10 -7 -26 -5
-35 4 -15 9 -16 36 -6 41 14 57 25 57 37 0 14 -20 11 -36 -6 -9 -8 -20 -15
-25 -15 -5 0 -9 7 -9 15 0 8 7 15 16 15 12 0 14 7 9 33 -10 41 -38 63 -48 35z"/>
<path d="M1435 2270 c4 -6 11 -8 16 -5 14 9 11 15 -7 15 -8 0 -12 -5 -9 -10z"/>
<path d="M1475 2251 c-10 -9 8 -21 30 -21 16 0 23 5 19 13 -4 12 -40 18 -49 8z"/>
<path d="M1430 2241 c0 -5 5 -13 10 -16 6 -3 10 -2 10 4 0 5 -4 13 -10 16 -5
3 -10 2 -10 -4z"/>
<path d="M1383 2170 c6 -25 -8 -26 -22 -2 -7 11 -11 12 -11 4 0 -7 6 -20 14
-27 11 -12 17 -11 35 9 22 23 19 36 -7 36 -9 0 -13 -7 -9 -20z"/>
<path d="M1430 2161 c0 -5 5 -13 10 -16 6 -3 10 -2 10 4 0 5 -4 13 -10 16 -5
3 -10 2 -10 -4z"/>
<path d="M1430 2060 c0 -5 7 -10 15 -10 8 0 15 5 15 10 0 6 -7 10 -15 10 -8 0
-15 -4 -15 -10z"/>
<path d="M7 1846 c-4 -10 -5 -21 -2 -24 9 -9 17 6 13 25 -3 17 -4 17 -11 -1z"/>
<path d="M665 1710 c3 -5 8 -10 11 -10 2 0 4 5 4 10 0 6 -5 10 -11 10 -5 0 -7
-4 -4 -10z"/>
<path d="M690 1687 c0 -7 8 -13 18 -12 26 2 30 20 5 23 -15 2 -23 -2 -23 -11z"/>
<path d="M620 1635 c0 -17 9 -19 28 -6 11 7 10 10 -3 15 -23 9 -25 8 -25 -9z"/>
<path d="M713 1633 c9 -2 23 -2 30 0 6 3 -1 5 -18 5 -16 0 -22 -2 -12 -5z"/>
<path d="M720 1580 c0 -5 7 -10 15 -10 8 0 15 5 15 10 0 6 -7 10 -15 10 -8 0
-15 -4 -15 -10z"/>
<path d="M560 1485 c0 -8 -5 -15 -10 -15 -6 0 -5 -8 2 -20 17 -26 48 -26 48
-1 0 11 -5 23 -10 26 -6 4 -8 11 -5 16 4 5 -1 9 -9 9 -9 0 -16 -7 -16 -15z"/>
<path d="M0 730 c0 -5 5 -10 11 -10 5 0 7 5 4 10 -3 6 -8 10 -11 10 -2 0 -4
-4 -4 -10z"/>
<path d="M947 32 c-24 -26 -21 -32 13 -32 33 0 37 7 17 34 -12 16 -14 16 -30
-2z"/>
<path d="M2238 43 c7 -3 16 -2 19 1 4 3 -2 6 -13 5 -11 0 -14 -3 -6 -6z"/>
<path d="M2326 23 c-11 -11 -6 -23 9 -23 8 0 15 4 15 9 0 13 -16 22 -24 14z"/>
</g>
</svg>
